<svg xmlns="http://www.w3.org/2000/svg" viewBox="0 0 200 200" width="400" height="400">
  <defs>
    <radialGradient id="suitBg" cx="50%" cy="50%" r="60%">
      <stop offset="0%" stop-color="#D32F2F"/>
      <stop offset="100%" stop-color="#B71C1C"/>
    </radialGradient>
    <filter id="dropShadow" x="-20%" y="-20%" width="140%" height="140%">
      <feDropShadow dx="0" dy="2" stdDeviation="2" flood-color="#000000" flood-opacity="0.35"/>
    </filter>
  </defs>
  
  <!-- Suit Fabric Canvas Preview -->
  <rect width="200" height="200" rx="32" fill="url(#suitBg)"/>
  
  <!-- High-Precision MCU Stark Suit Chest Spider Emblem -->
  <g filter="url(#dropShadow)" fill="#111111">
    <!-- Center Cephalothorax & Abdomen Body -->
    <path d="M 100 62 L 107 76 L 105 116 L 100 134 L 95 116 L 93 76 Z"/>
    
    <!-- Top Left Leg 1 -->
    <path d="M 98 72 C 78 52 62 44 48 40 C 64 50 78 60 95 77 Z"/>
    <!-- Middle Left Leg 2 -->
    <path d="M 97 82 C 72 70 54 70 38 74 C 56 76 72 78 95 86 Z"/>
    <!-- Lower Left Leg 3 -->
    <path d="M 97 94 C 70 102 52 112 42 124 C 58 112 72 104 95 98 Z"/>
    <!-- Bottom Left Leg 4 -->
    <path d="M 98 106 C 80 126 66 146 54 162 C 68 142 80 126 97 110 Z"/>

    <!-- Top Right Leg 1 -->
    <path d="M 102 72 C 122 52 138 44 152 40 C 136 50 122 60 105 77 Z"/>
    <!-- Middle Right Leg 2 -->
    <path d="M 103 82 C 128 70 146 70 162 74 C 144 76 128 78 105 86 Z"/>
    <!-- Lower Right Leg 3 -->
    <path d="M 103 94 C 130 102 148 112 158 124 C 142 112 128 104 105 98 Z"/>
    <!-- Bottom Right Leg 4 -->
    <path d="M 102 106 C 120 126 134 146 146 162 C 132 142 120 126 103 110 Z"/>
  </g>
</svg>
